<svg id="visual" viewBox="0 0 900 600" width="900" height="600" xmlns="http://www.w3.org/2000/svg" xmlns:xlink="http://www.w3.org/1999/xlink" version="1.1"><rect x="0" y="0" width="900" height="600" fill="#ffffff"></rect><defs><linearGradient id="grad1_0" x1="33.3%" y1="0%" x2="100%" y2="100%"><stop offset="20%" stop-color="#ffffff" stop-opacity="1"></stop><stop offset="80%" stop-color="#ffffff" stop-opacity="1"></stop></linearGradient></defs><defs><linearGradient id="grad2_0" x1="0%" y1="0%" x2="66.7%" y2="100%"><stop offset="20%" stop-color="#ffffff" stop-opacity="1"></stop><stop offset="80%" stop-color="#ffffff" stop-opacity="1"></stop></linearGradient></defs><g transform="translate(900, 0)"><path d="M0 405.6C-65.9 387 -131.8 368.4 -194.5 336.9C-257.2 305.4 -316.6 261.1 -351.3 202.8C-385.9 144.5 -395.8 72.3 -405.6 0L0 0Z" fill="#D1EAD1"></path></g><g transform="translate(0, 600)"><path d="M0 -405.6C81.7 -401.2 163.5 -396.9 202.8 -351.3C242.2 -305.7 239.1 -218.9 265.9 -153.5C292.6 -88.1 349.1 -44 405.6 0L0 0Z" fill="#D1EAD1"></path></g></svg>